<?xml version="1.0" encoding="UTF-8" standalone="no"?>
<!DOCTYPE svg PUBLIC "-//W3C//DTD SVG 1.1//EN"
 "http://www.w3.org/Graphics/SVG/1.1/DTD/svg11.dtd">
<!-- Generated by graphviz version 14.0.2 (20251019.1705)
 -->
<!-- Pages: 1 -->
<svg width="4800pt" height="3202pt"
 viewBox="0.00 0.00 4800.00 3202.00" xmlns="http://www.w3.org/2000/svg" xmlns:xlink="http://www.w3.org/1999/xlink">
<g id="graph0" class="graph" transform="scale(3.63878 3.63878) rotate(0) translate(4 875.99)">
<polygon fill="white" stroke="none" points="-4,4 -4,-875.99 1315.12,-875.99 1315.12,4 -4,4"/>
<g id="clust1" class="cluster">
<title>cluster_inputs</title>
<polygon fill="#e8f4f8" stroke="#0077b6" stroke-width="3" points="8,-522.99 8,-863.99 311,-863.99 311,-522.99 8,-522.99"/>
<text xml:space="preserve" text-anchor="middle" x="159.5" y="-846.69" font-family="bold" font-size="14.00">Inputs</text>
</g>
<g id="clust2" class="cluster">
<title>cluster_preprocessing</title>
<polygon fill="#f5f5f5" stroke="#6c757d" stroke-width="3" points="393,-400.99 393,-735.74 1011,-735.74 1011,-400.99 393,-400.99"/>
<text xml:space="preserve" text-anchor="middle" x="702" y="-718.44" font-family="bold" font-size="14.00">Preprocessing</text>
</g>
<g id="clust3" class="cluster">
<title>cluster_modeling</title>
<polygon fill="#f3e5f5" stroke="#9d4edd" stroke-width="3" points="692,-265.5 692,-356.24 936,-356.24 936,-265.5 692,-265.5"/>
<text xml:space="preserve" text-anchor="middle" x="814" y="-338.94" font-family="bold" font-size="14.00">Modeling</text>
</g>
<g id="clust4" class="cluster">
<title>cluster_publication</title>
<polygon fill="#f5e6e8" stroke="#8b4513" stroke-width="3" points="521,-265.5 521,-356.24 673,-356.24 673,-265.5 521,-265.5"/>
<text xml:space="preserve" text-anchor="middle" x="597" y="-338.94" font-family="bold" font-size="14.00">Publication</text>
</g>
<g id="clust6" class="cluster">
<title>cluster_outputs</title>
<polygon fill="#f0f8f0" stroke="#52b788" stroke-width="3" points="526,-143.5 526,-220.75 686,-220.75 686,-143.5 526,-143.5"/>
<text xml:space="preserve" text-anchor="middle" x="606" y="-203.45" font-family="bold" font-size="14.00">Outputs</text>
</g>
<g id="clust7" class="cluster">
<title>cluster_validation</title>
<polygon fill="#fff8e8" stroke="#f4a261" stroke-width="3" points="352,-8 352,-98.75 600,-98.75 600,-8 352,-8"/>
<text xml:space="preserve" text-anchor="middle" x="476" y="-81.45" font-family="bold" font-size="14.00">Validation</text>
</g>
<!-- Climate -->
<g id="node1" class="node">
<title>Climate</title>
<polygon fill="#a9d6e5" stroke="black" points="302.5,-566.99 145.5,-566.99 145.5,-530.99 302.5,-530.99 302.5,-566.99"/>
<text xml:space="preserve" text-anchor="middle" x="224" y="-552.04" font-family="Arial" font-size="11.00">TerraClimate</text>
<text xml:space="preserve" text-anchor="middle" x="224" y="-538.54" font-family="Arial" font-size="11.00">(Precipitation, ET₀, Runoff)</text>
</g>
<!-- Convert -->
<g id="node5" class="node">
<title>Convert</title>
<ellipse fill="#d8e2dc" stroke="black" cx="739" cy="-426.99" rx="98.81" ry="18"/>
<text xml:space="preserve" text-anchor="middle" x="739" y="-423.29" font-family="Arial" font-size="11.00">Convert NetCDF → GeoTIFF</text>
</g>
<!-- Climate&#45;&gt;Convert -->
<g id="edge4" class="edge">
<title>Climate&#45;&gt;Convert</title>
<path fill="none" stroke="black" d="M224,-530.69C224,-512.73 224,-488 224,-488 224,-488 667.06,-488 667.06,-488 667.06,-488 667.06,-451.15 667.06,-451.15"/>
<polygon fill="black" stroke="black" points="670.56,-451.15 667.06,-441.15 663.56,-451.15 670.56,-451.15"/>
</g>
<!-- Soil -->
<g id="node2" class="node">
<title>Soil</title>
<polygon fill="#a9d6e5" stroke="black" points="302.5,-695.74 145.5,-695.74 145.5,-659.74 302.5,-659.74 302.5,-695.74"/>
<text xml:space="preserve" text-anchor="middle" x="224" y="-680.79" font-family="Arial" font-size="11.00">SoilGrids2.0</text>
<text xml:space="preserve" text-anchor="middle" x="224" y="-667.29" font-family="Arial" font-size="11.00">(Field Capacity, Wilting Point)</text>
</g>
<!-- AWC -->
<g id="node6" class="node">
<title>AWC</title>
<ellipse fill="#d8e2dc" stroke="black" cx="503" cy="-548.99" rx="89.92" ry="18"/>
<text xml:space="preserve" text-anchor="middle" x="503" y="-545.29" font-family="Arial" font-size="11.00">Calculate AWC = FC &#45; WP</text>
</g>
<!-- Soil&#45;&gt;AWC -->
<g id="edge5" class="edge">
<title>Soil&#45;&gt;AWC</title>
<path fill="none" stroke="black" d="M302.76,-669C310.21,-669 315.04,-669 315.04,-669 315.04,-669 315.04,-549 315.04,-549 315.04,-549 401.09,-549 401.09,-549"/>
<polygon fill="black" stroke="black" points="401.09,-552.5 411.09,-549 401.09,-545.5 401.09,-552.5"/>
</g>
<!-- Rooting -->
<g id="node3" class="node">
<title>Rooting</title>
<polygon fill="#a9d6e5" stroke="black" points="109.62,-566.99 16.38,-566.99 16.38,-530.99 109.62,-530.99 109.62,-566.99"/>
<text xml:space="preserve" text-anchor="middle" x="63" y="-552.04" font-family="Arial" font-size="11.00">CSIRO</text>
<text xml:space="preserve" text-anchor="middle" x="63" y="-538.54" font-family="Arial" font-size="11.00">(Rooting Depth)</text>
</g>
<!-- WHC -->
<g id="node7" class="node">
<title>WHC</title>
<ellipse fill="#d8e2dc" stroke="black" cx="503" cy="-426.99" rx="101.61" ry="18"/>
<text xml:space="preserve" text-anchor="middle" x="503" y="-423.29" font-family="Arial" font-size="11.00">WHC = AWC × Rooting Depth</text>
</g>
<!-- Rooting&#45;&gt;WHC -->
<g id="edge6" class="edge">
<title>Rooting&#45;&gt;WHC</title>
<path fill="none" stroke="black" d="M63,-530.73C63,-496.7 63,-427 63,-427 63,-427 389.44,-427 389.44,-427"/>
<polygon fill="black" stroke="black" points="389.44,-430.5 399.44,-427 389.44,-423.5 389.44,-430.5"/>
</g>
<!-- CSS_raw -->
<g id="node4" class="node">
<title>CSS_raw</title>
<polygon fill="#a9d6e5" stroke="black" points="302.88,-830.74 133.12,-830.74 133.12,-794.74 302.88,-794.74 302.88,-830.74"/>
<text xml:space="preserve" text-anchor="middle" x="218" y="-815.79" font-family="Arial" font-size="11.00">GRDC&#45;CSS Stations</text>
<text xml:space="preserve" text-anchor="middle" x="218" y="-802.29" font-family="Arial" font-size="11.00">(Flow Stations, Drainage Areas)</text>
</g>
<!-- FilterCSS -->
<g id="node8" class="node">
<title>FilterCSS</title>
<ellipse fill="#d8e2dc" stroke="black" cx="561" cy="-677.74" rx="159.81" ry="24.75"/>
<text xml:space="preserve" text-anchor="middle" x="561" y="-680.79" font-family="Arial" font-size="11.00">Filter CSS Stations</text>
<text xml:space="preserve" text-anchor="middle" x="561" y="-667.29" font-family="Arial" font-size="11.00">(&gt;30 yrs, &gt;48 sq km, consistent boundaries)</text>
</g>
<!-- CSS_raw&#45;&gt;FilterCSS -->
<g id="edge8" class="edge">
<title>CSS_raw&#45;&gt;FilterCSS</title>
<path fill="none" stroke="black" d="M303.24,-813C317.2,-813 327.21,-813 327.21,-813 327.21,-813 327.21,-678 327.21,-678 327.21,-678 389.35,-678 389.35,-678"/>
<polygon fill="black" stroke="black" points="389.35,-681.5 399.35,-678 389.35,-674.5 389.35,-681.5"/>
</g>
<!-- MWBM -->
<g id="node11" class="node">
<title>MWBM</title>
<ellipse fill="#e1c1d7" stroke="black" cx="814" cy="-298.25" rx="113.67" ry="24.75"/>
<text xml:space="preserve" text-anchor="middle" x="814" y="-301.3" font-family="Arial" font-size="11.00">Monthly Water Balance Model</text>
<text xml:space="preserve" text-anchor="middle" x="814" y="-287.8" font-family="Arial" font-size="11.00">(Thornthwaite&#45;Mather, Ulmen)</text>
</g>
<!-- Convert&#45;&gt;MWBM -->
<g id="edge13" class="edge">
<title>Convert&#45;&gt;MWBM</title>
<path fill="none" stroke="black" d="M791.98,-411.46C791.98,-411.46 791.98,-334.14 791.98,-334.14"/>
<polygon fill="black" stroke="black" points="795.48,-334.14 791.98,-324.14 788.48,-334.14 795.48,-334.14"/>
</g>
<!-- AWC&#45;&gt;WHC -->
<g id="edge7" class="edge">
<title>AWC&#45;&gt;WHC</title>
<path fill="none" stroke="black" d="M503,-530.73C503,-530.73 503,-456.9 503,-456.9"/>
<polygon fill="black" stroke="black" points="506.5,-456.9 503,-446.9 499.5,-456.9 506.5,-456.9"/>
</g>
<!-- WHC&#45;&gt;MWBM -->
<g id="edge14" class="edge">
<title>WHC&#45;&gt;MWBM</title>
<path fill="none" stroke="black" d="M579.56,-415C579.56,-392.9 579.56,-348 579.56,-348 579.56,-348 746.16,-348 746.16,-348 746.16,-348 746.16,-330 746.16,-330"/>
<polygon fill="black" stroke="black" points="749.66,-330 746.16,-320 742.66,-330 749.66,-330"/>
</g>
<!-- Publish -->
<g id="node12" class="node">
<title>Publish</title>
<ellipse fill="#bb8588" stroke="black" cx="597" cy="-298.25" rx="67.53" ry="24.75"/>
<text xml:space="preserve" text-anchor="middle" x="597" y="-301.3" font-family="Arial" font-size="11.00">Publish on GEE:</text>
<text xml:space="preserve" text-anchor="middle" x="597" y="-287.8" font-family="Arial" font-size="11.00">WHC, k</text>
</g>
<!-- WHC&#45;&gt;Publish -->
<g id="edge12" class="edge">
<title>WHC&#45;&gt;Publish</title>
<path fill="none" stroke="black" d="M554.52,-411.21C554.52,-411.21 554.52,-329.47 554.52,-329.47"/>
<polygon fill="black" stroke="black" points="558.02,-329.47 554.52,-319.47 551.02,-329.47 558.02,-329.47"/>
</g>
<!-- RecessionK -->
<g id="node9" class="node">
<title>RecessionK</title>
<ellipse fill="#d8e2dc" stroke="black" cx="886" cy="-548.99" rx="116.57" ry="18"/>
<text xml:space="preserve" text-anchor="middle" x="886" y="-545.29" font-family="Arial" font-size="11.00">Determine k using HydroSignatures</text>
</g>
<!-- FilterCSS&#45;&gt;RecessionK -->
<g id="edge9" class="edge">
<title>FilterCSS&#45;&gt;RecessionK</title>
<path fill="none" stroke="black" d="M693.94,-663.97C693.94,-630.75 693.94,-549 693.94,-549 693.94,-549 757.5,-549 757.5,-549"/>
<polygon fill="black" stroke="black" points="757.5,-552.5 767.5,-549 757.5,-545.5 757.5,-552.5"/>
</g>
<!-- Validation -->
<g id="node14" class="node">
<title>Validation</title>
<ellipse fill="#ffe6a7" stroke="black" cx="476" cy="-40.75" rx="115.79" ry="24.75"/>
<text xml:space="preserve" text-anchor="middle" x="476" y="-43.8" font-family="Arial" font-size="11.00">Compare with CSS Discharge</text>
<text xml:space="preserve" text-anchor="middle" x="476" y="-30.3" font-family="Arial" font-size="11.00">(HydroErr: r, d1, MAE, PBIAS)</text>
</g>
<!-- FilterCSS&#45;&gt;Validation -->
<g id="edge18" class="edge">
<title>FilterCSS&#45;&gt;Validation</title>
<path fill="none" stroke="black" d="M412.11,-687C393.42,-687 380.7,-687 380.7,-687 380.7,-687 380.7,-66.67 380.7,-66.67"/>
<polygon fill="black" stroke="black" points="384.2,-66.67 380.7,-56.67 377.2,-66.67 384.2,-66.67"/>
</g>
<!-- RasterK -->
<g id="node10" class="node">
<title>RasterK</title>
<ellipse fill="#d8e2dc" stroke="black" cx="938" cy="-426.99" rx="64.68" ry="18"/>
<text xml:space="preserve" text-anchor="middle" x="938" y="-423.29" font-family="Arial" font-size="11.00">Rasterize k values</text>
</g>
<!-- RecessionK&#45;&gt;RasterK -->
<g id="edge10" class="edge">
<title>RecessionK&#45;&gt;RasterK</title>
<path fill="none" stroke="black" d="M937.95,-532.54C937.95,-532.54 937.95,-456.68 937.95,-456.68"/>
<polygon fill="black" stroke="black" points="941.45,-456.68 937.95,-446.68 934.45,-456.68 941.45,-456.68"/>
</g>
<!-- RasterK&#45;&gt;MWBM -->
<g id="edge15" class="edge">
<title>RasterK&#45;&gt;MWBM</title>
<path fill="none" stroke="black" d="M891.44,-414.18C891.44,-414.18 891.44,-328.29 891.44,-328.29"/>
<polygon fill="black" stroke="black" points="894.94,-328.29 891.44,-318.29 887.94,-328.29 894.94,-328.29"/>
</g>
<!-- RasterK&#45;&gt;Publish -->
<g id="edge11" class="edge">
<title>RasterK&#45;&gt;Publish</title>
<path fill="none" stroke="black" d="M882.38,-417.5C882.38,-408.72 882.38,-397 882.38,-397 882.38,-397 656.42,-397 656.42,-397 656.42,-397 656.42,-321.87 656.42,-321.87"/>
<polygon fill="black" stroke="black" points="659.92,-321.87 656.42,-311.87 652.92,-321.87 659.92,-321.87"/>
</g>
<!-- MWBM&#45;&gt;Publish -->
<!-- Outputs -->
<g id="node13" class="node">
<title>Outputs</title>
<polygon fill="#dde5b6" stroke="black" points="678.12,-187.5 533.88,-187.5 533.88,-151.5 678.12,-151.5 678.12,-187.5"/>
<text xml:space="preserve" text-anchor="middle" x="606" y="-172.55" font-family="Arial" font-size="11.00">Outputs:</text>
<text xml:space="preserve" text-anchor="middle" x="606" y="-159.05" font-family="Arial" font-size="11.00">Peff, ETa, S, PERC, BF, Q</text>
</g>
<!-- MWBM&#45;&gt;Outputs -->
<g id="edge17" class="edge">
<title>MWBM&#45;&gt;Outputs</title>
<path fill="none" stroke="black" d="M706.23,-290C686.14,-290 671.33,-290 671.33,-290 671.33,-290 671.33,-199.31 671.33,-199.31"/>
<polygon fill="black" stroke="black" points="674.83,-199.31 671.33,-189.31 667.83,-199.31 674.83,-199.31"/>
</g>
<!-- inv5 -->
<!-- Publish&#45;&gt;inv5 -->
<!-- Outputs&#45;&gt;Validation -->
<g id="edge19" class="edge">
<title>Outputs&#45;&gt;Validation</title>
<path fill="none" stroke="black" d="M562.83,-151.05C562.83,-151.05 562.83,-69.04 562.83,-69.04"/>
<polygon fill="black" stroke="black" points="566.33,-69.04 562.83,-59.04 559.33,-69.04 566.33,-69.04"/>
</g>
<!-- Period -->
<g id="node15" class="node">
<title>Period</title>
<polygon fill="none" stroke="black" points="1116.88,-695.74 1019.12,-695.74 1019.12,-659.74 1122.88,-659.74 1122.88,-689.74 1116.88,-695.74"/>
<polyline fill="none" stroke="black" points="1116.88,-695.74 1116.88,-689.74"/>
<polyline fill="none" stroke="black" points="1122.88,-689.74 1116.88,-689.74"/>
<text xml:space="preserve" text-anchor="middle" x="1071" y="-680.79" font-family="Arial" font-size="11.00">Temporal Domain:</text>
<text xml:space="preserve" text-anchor="middle" x="1071" y="-667.29" font-family="Arial" font-size="11.00">1958–2023</text>
</g>
<!-- Period&#45;&gt;RecessionK -->
<g id="edge21" class="edge">
<title>Period&#45;&gt;RecessionK</title>
<path fill="none" stroke="black" stroke-dasharray="5,2" d="M1027.37,-659.3C1027.37,-623.7 1027.37,-549 1027.37,-549 1027.37,-549 1014.58,-549 1014.58,-549"/>
<polygon fill="black" stroke="black" points="1014.58,-545.5 1004.58,-549 1014.58,-552.5 1014.58,-545.5"/>
</g>
<!-- Period&#45;&gt;MWBM -->
<g id="edge20" class="edge">
<title>Period&#45;&gt;MWBM</title>
<path fill="none" stroke="black" stroke-dasharray="5,2" d="M1035.62,-659.37C1035.62,-595.06 1035.62,-384 1035.62,-384 1035.62,-384 900.5,-384 900.5,-384 900.5,-384 900.5,-325.89 900.5,-325.89"/>
<polygon fill="black" stroke="black" points="904,-325.89 900.5,-315.89 897,-325.89 904,-325.89"/>
</g>
<!-- Tools -->
<g id="node16" class="node">
<title>Tools</title>
<polygon fill="none" stroke="black" points="480.62,-836.99 339.38,-836.99 339.38,-788.49 486.62,-788.49 486.62,-830.99 480.62,-836.99"/>
<polyline fill="none" stroke="black" points="480.62,-836.99 480.62,-830.99"/>
<polyline fill="none" stroke="black" points="486.62,-830.99 480.62,-830.99"/>
<text xml:space="preserve" text-anchor="middle" x="413" y="-822.54" font-family="Arial" font-size="11.00">Tools:</text>
<text xml:space="preserve" text-anchor="middle" x="413" y="-809.04" font-family="Arial" font-size="11.00">Python, ArcPy, GEE</text>
<text xml:space="preserve" text-anchor="middle" x="413" y="-795.54" font-family="Arial" font-size="11.00">HydroSignatures, HydroErr</text>
</g>
<!-- InitialConditions -->
<g id="node17" class="node">
<title>InitialConditions</title>
<polygon fill="none" stroke="black" points="1305.12,-444.99 1112.88,-444.99 1112.88,-408.99 1311.12,-408.99 1311.12,-438.99 1305.12,-444.99"/>
<polyline fill="none" stroke="black" points="1305.12,-444.99 1305.12,-438.99"/>
<polyline fill="none" stroke="black" points="1311.12,-438.99 1305.12,-438.99"/>
<text xml:space="preserve" text-anchor="start" x="1171.12" y="-428.54" font-family="Arial" font-size="11.00">Initial Conditions:</text>
<text xml:space="preserve" text-anchor="start" x="1120.88" y="-417.54" font-family="Arial" font-size="11.00">S: 0.1WHC, BF</text>
<text xml:space="preserve" text-anchor="start" x="1196.62" y="-417.54" font-family="Arial" baseline-shift="sub" font-size="11.00">i&#45;1</text>
<text xml:space="preserve" text-anchor="start" x="1207.12" y="-417.54" font-family="Arial" font-size="11.00">: 10, warm&#45;up yrs: 6</text>
</g>
<!-- InitialConditions&#45;&gt;MWBM -->
<g id="edge16" class="edge">
<title>InitialConditions&#45;&gt;MWBM</title>
<path fill="none" stroke="black" stroke-dasharray="5,2" d="M1212,-408.68C1212,-392.68 1212,-372 1212,-372 1212,-372 909.55,-372 909.55,-372 909.55,-372 909.55,-323.29 909.55,-323.29"/>
<polygon fill="black" stroke="black" points="913.05,-323.29 909.55,-313.29 906.05,-323.29 913.05,-323.29"/>
</g>
<!-- inv1 -->
<!-- inv2 -->
<!-- inv3 -->
<!-- inv4 -->
<!-- inv4&#45;&gt;MWBM -->
</g>
</svg>
